<mxfile host="app.diagrams.net" modified="2024-03-04T14:03:42.220Z" agent="Mozilla/5.0 (Macintosh; Intel Mac OS X 10_15_7) AppleWebKit/537.36 (KHTML, like Gecko) Chrome/121.0.0.0 Safari/537.36" etag="9CDQNTiv2PtOy7cOmRxl" version="23.1.6" type="github">
  <diagram id="R2lEEEUBdFMjLlhIrx00" name="Page-1">
    <mxGraphModel dx="954" dy="515" grid="1" gridSize="10" guides="1" tooltips="1" connect="1" arrows="1" fold="1" page="1" pageScale="1" pageWidth="850" pageHeight="1100" math="0" shadow="0" extFonts="Permanent Marker^https://fonts.googleapis.com/css?family=Permanent+Marker">
      <root>
        <mxCell id="0" />
        <mxCell id="1" parent="0" />
        <mxCell id="HyHaxjE7SYcpdqGhN-RI-1" value="KURS" style="rounded=0;whiteSpace=wrap;html=1;fillColor=#d5e8d4;strokeColor=#82b366;" vertex="1" parent="1">
          <mxGeometry x="440" y="100" width="120" height="60" as="geometry" />
        </mxCell>
        <mxCell id="HyHaxjE7SYcpdqGhN-RI-2" value="KURSLEDER" style="rounded=0;whiteSpace=wrap;html=1;fillColor=#d5e8d4;strokeColor=#82b366;" vertex="1" parent="1">
          <mxGeometry x="680" y="100" width="120" height="60" as="geometry" />
        </mxCell>
        <mxCell id="HyHaxjE7SYcpdqGhN-RI-6" value="" style="endArrow=none;html=1;rounded=0;exitX=0.5;exitY=0;exitDx=0;exitDy=0;startArrow=ERzeroToMany;startFill=0;" edge="1" parent="1" source="HyHaxjE7SYcpdqGhN-RI-1">
          <mxGeometry relative="1" as="geometry">
            <mxPoint x="540" y="240" as="sourcePoint" />
            <mxPoint x="500" y="40" as="targetPoint" />
          </mxGeometry>
        </mxCell>
        <mxCell id="HyHaxjE7SYcpdqGhN-RI-7" value="" style="endArrow=none;html=1;rounded=0;" edge="1" parent="1">
          <mxGeometry relative="1" as="geometry">
            <mxPoint x="500" y="40" as="sourcePoint" />
            <mxPoint x="740" y="40" as="targetPoint" />
          </mxGeometry>
        </mxCell>
        <mxCell id="HyHaxjE7SYcpdqGhN-RI-8" value="" style="endArrow=ERoneToMany;html=1;rounded=0;endFill=0;" edge="1" parent="1" target="HyHaxjE7SYcpdqGhN-RI-2">
          <mxGeometry relative="1" as="geometry">
            <mxPoint x="740" y="40" as="sourcePoint" />
            <mxPoint x="700" y="240" as="targetPoint" />
          </mxGeometry>
        </mxCell>
        <mxCell id="HyHaxjE7SYcpdqGhN-RI-10" value="" style="endArrow=none;html=1;rounded=0;exitX=0.5;exitY=1;exitDx=0;exitDy=0;startArrow=ERzeroToMany;startFill=0;" edge="1" parent="1" source="HyHaxjE7SYcpdqGhN-RI-1">
          <mxGeometry relative="1" as="geometry">
            <mxPoint x="540" y="240" as="sourcePoint" />
            <mxPoint x="500" y="220" as="targetPoint" />
          </mxGeometry>
        </mxCell>
        <mxCell id="HyHaxjE7SYcpdqGhN-RI-11" value="" style="endArrow=none;html=1;rounded=0;" edge="1" parent="1">
          <mxGeometry relative="1" as="geometry">
            <mxPoint x="500" y="220" as="sourcePoint" />
            <mxPoint x="740" y="220" as="targetPoint" />
          </mxGeometry>
        </mxCell>
        <mxCell id="HyHaxjE7SYcpdqGhN-RI-12" value="" style="endArrow=none;html=1;rounded=0;exitX=0.5;exitY=1;exitDx=0;exitDy=0;startArrow=ERoneToMany;startFill=0;" edge="1" parent="1" source="HyHaxjE7SYcpdqGhN-RI-2">
          <mxGeometry relative="1" as="geometry">
            <mxPoint x="540" y="240" as="sourcePoint" />
            <mxPoint x="740" y="220" as="targetPoint" />
          </mxGeometry>
        </mxCell>
        <mxCell id="HyHaxjE7SYcpdqGhN-RI-13" value="PLANLAGT KURS" style="text;html=1;align=center;verticalAlign=middle;whiteSpace=wrap;rounded=0;" vertex="1" parent="1">
          <mxGeometry x="570" y="10" width="110" height="30" as="geometry" />
        </mxCell>
        <mxCell id="HyHaxjE7SYcpdqGhN-RI-14" value="SYKDOM" style="text;html=1;align=center;verticalAlign=middle;whiteSpace=wrap;rounded=0;" vertex="1" parent="1">
          <mxGeometry x="568" y="190" width="115" height="30" as="geometry" />
        </mxCell>
        <mxCell id="HyHaxjE7SYcpdqGhN-RI-15" value="" style="edgeStyle=entityRelationEdgeStyle;fontSize=12;html=1;endArrow=ERoneToMany;startArrow=ERzeroToMany;rounded=0;exitX=1;exitY=0.5;exitDx=0;exitDy=0;entryX=0;entryY=0.5;entryDx=0;entryDy=0;" edge="1" parent="1" source="HyHaxjE7SYcpdqGhN-RI-1" target="HyHaxjE7SYcpdqGhN-RI-2">
          <mxGeometry width="100" height="100" relative="1" as="geometry">
            <mxPoint x="570" y="300" as="sourcePoint" />
            <mxPoint x="670" y="200" as="targetPoint" />
          </mxGeometry>
        </mxCell>
        <mxCell id="HyHaxjE7SYcpdqGhN-RI-16" value="KOMPETANSE" style="text;html=1;align=center;verticalAlign=middle;whiteSpace=wrap;rounded=0;" vertex="1" parent="1">
          <mxGeometry x="580.5" y="100" width="90" height="30" as="geometry" />
        </mxCell>
        <mxCell id="HyHaxjE7SYcpdqGhN-RI-17" value="&lt;h1&gt;&lt;font style=&quot;font-size: 17px;&quot;&gt;MANGE TIL MANGE RELASJON&lt;/font&gt;&lt;/h1&gt;&lt;p&gt;Her ser vi at for normale kurs med null sykdom vil det alltid være minst 1 eller flere kursledere (siden det sto kursleder(e) i oppgaveteksen) Videre kan man være registrert kursleder men aldri holdt kurs som er hvorfor det står 0 eller fler!&lt;/p&gt;&lt;p&gt;samme går for kompetanse, for hvert kurs antar vi at det finnes minst 1 kursleder med kompetanse, men ikke alle kursledere kan holde alle type kurs.&lt;/p&gt;&lt;p&gt;Videre har jeg en fravær relasjon slik at det er registrert hvem som holder kurset i tilfellet sykdom. denne forteller oss at ved sykdom må det være minst 1 kursleder registrert for å dekke fraværet, men at ikke alle kursledere nødvendig må være den som dekker fraværende&lt;/p&gt;&lt;p&gt;&lt;br&gt;&lt;/p&gt;" style="text;html=1;spacing=5;spacingTop=-20;whiteSpace=wrap;overflow=hidden;rounded=0;" vertex="1" parent="1">
          <mxGeometry x="20" y="10" width="370" height="250" as="geometry" />
        </mxCell>
        <mxCell id="HyHaxjE7SYcpdqGhN-RI-19" value="KURS" style="rounded=0;whiteSpace=wrap;html=1;fillColor=#d5e8d4;strokeColor=#82b366;" vertex="1" parent="1">
          <mxGeometry x="320" y="470" width="120" height="60" as="geometry" />
        </mxCell>
        <mxCell id="HyHaxjE7SYcpdqGhN-RI-20" value="KURSLEDER" style="rounded=0;whiteSpace=wrap;html=1;fillColor=#d5e8d4;strokeColor=#82b366;" vertex="1" parent="1">
          <mxGeometry x="720" y="470" width="120" height="60" as="geometry" />
        </mxCell>
        <mxCell id="HyHaxjE7SYcpdqGhN-RI-21" value="FRAVÆR" style="rounded=0;whiteSpace=wrap;html=1;fillColor=#d5e8d4;strokeColor=#82b366;" vertex="1" parent="1">
          <mxGeometry x="520" y="580" width="120" height="60" as="geometry" />
        </mxCell>
        <mxCell id="HyHaxjE7SYcpdqGhN-RI-22" value="GJENNOMFØRING" style="rounded=0;whiteSpace=wrap;html=1;fillColor=#d5e8d4;strokeColor=#82b366;" vertex="1" parent="1">
          <mxGeometry x="497.5" y="370" width="165" height="60" as="geometry" />
        </mxCell>
        <mxCell id="HyHaxjE7SYcpdqGhN-RI-23" value="KOMPETANSE" style="rounded=0;whiteSpace=wrap;html=1;fillColor=#d5e8d4;strokeColor=#82b366;" vertex="1" parent="1">
          <mxGeometry x="520" y="470" width="120" height="60" as="geometry" />
        </mxCell>
        <mxCell id="HyHaxjE7SYcpdqGhN-RI-24" value="DELTAKER" style="rounded=0;whiteSpace=wrap;html=1;fillColor=#d5e8d4;strokeColor=#82b366;" vertex="1" parent="1">
          <mxGeometry x="320" y="680" width="120" height="60" as="geometry" />
        </mxCell>
        <mxCell id="HyHaxjE7SYcpdqGhN-RI-25" value="KUNDEREGISTER/&lt;br&gt;HISTORIKK" style="rounded=0;whiteSpace=wrap;html=1;fillColor=#d5e8d4;strokeColor=#82b366;" vertex="1" parent="1">
          <mxGeometry x="320" y="580" width="120" height="60" as="geometry" />
        </mxCell>
        <mxCell id="HyHaxjE7SYcpdqGhN-RI-27" value="" style="endArrow=none;html=1;rounded=0;exitX=0.5;exitY=0;exitDx=0;exitDy=0;startArrow=ERmandOne;startFill=0;" edge="1" parent="1" source="HyHaxjE7SYcpdqGhN-RI-19">
          <mxGeometry relative="1" as="geometry">
            <mxPoint x="500" y="470" as="sourcePoint" />
            <mxPoint x="380" y="400" as="targetPoint" />
          </mxGeometry>
        </mxCell>
        <mxCell id="HyHaxjE7SYcpdqGhN-RI-28" value="" style="endArrow=ERzeroToMany;html=1;rounded=0;entryX=0;entryY=0.5;entryDx=0;entryDy=0;endFill=0;" edge="1" parent="1" target="HyHaxjE7SYcpdqGhN-RI-22">
          <mxGeometry relative="1" as="geometry">
            <mxPoint x="380" y="400" as="sourcePoint" />
            <mxPoint x="660" y="470" as="targetPoint" />
          </mxGeometry>
        </mxCell>
        <mxCell id="HyHaxjE7SYcpdqGhN-RI-29" value="" style="endArrow=ERoneToMany;html=1;rounded=0;entryX=0.5;entryY=0;entryDx=0;entryDy=0;endFill=0;" edge="1" parent="1" target="HyHaxjE7SYcpdqGhN-RI-20">
          <mxGeometry relative="1" as="geometry">
            <mxPoint x="780" y="400" as="sourcePoint" />
            <mxPoint x="660" y="470" as="targetPoint" />
          </mxGeometry>
        </mxCell>
        <mxCell id="HyHaxjE7SYcpdqGhN-RI-30" value="" style="endArrow=none;html=1;rounded=0;exitX=1;exitY=0.5;exitDx=0;exitDy=0;startArrow=ERmandOne;startFill=0;" edge="1" parent="1" source="HyHaxjE7SYcpdqGhN-RI-22">
          <mxGeometry relative="1" as="geometry">
            <mxPoint x="500" y="470" as="sourcePoint" />
            <mxPoint x="780" y="400" as="targetPoint" />
          </mxGeometry>
        </mxCell>
        <mxCell id="HyHaxjE7SYcpdqGhN-RI-33" value="" style="endArrow=none;html=1;rounded=0;exitX=0.75;exitY=1;exitDx=0;exitDy=0;startArrow=ERone;startFill=0;" edge="1" parent="1" source="HyHaxjE7SYcpdqGhN-RI-19">
          <mxGeometry relative="1" as="geometry">
            <mxPoint x="480" y="440" as="sourcePoint" />
            <mxPoint x="410" y="560" as="targetPoint" />
          </mxGeometry>
        </mxCell>
        <mxCell id="HyHaxjE7SYcpdqGhN-RI-35" value="" style="endArrow=none;html=1;rounded=0;" edge="1" parent="1">
          <mxGeometry relative="1" as="geometry">
            <mxPoint x="410" y="560" as="sourcePoint" />
            <mxPoint x="550" y="560" as="targetPoint" />
          </mxGeometry>
        </mxCell>
        <mxCell id="HyHaxjE7SYcpdqGhN-RI-37" value="" style="endArrow=none;html=1;rounded=0;exitX=0.25;exitY=0;exitDx=0;exitDy=0;startArrow=ERzeroToMany;startFill=0;" edge="1" parent="1" source="HyHaxjE7SYcpdqGhN-RI-21">
          <mxGeometry relative="1" as="geometry">
            <mxPoint x="480" y="440" as="sourcePoint" />
            <mxPoint x="550" y="560" as="targetPoint" />
          </mxGeometry>
        </mxCell>
        <mxCell id="HyHaxjE7SYcpdqGhN-RI-38" value="" style="endArrow=none;html=1;rounded=0;" edge="1" parent="1">
          <mxGeometry relative="1" as="geometry">
            <mxPoint x="610" y="560" as="sourcePoint" />
            <mxPoint x="780" y="560" as="targetPoint" />
          </mxGeometry>
        </mxCell>
        <mxCell id="HyHaxjE7SYcpdqGhN-RI-39" value="" style="endArrow=none;html=1;rounded=0;exitX=0.75;exitY=0;exitDx=0;exitDy=0;startArrow=ERone;startFill=0;" edge="1" parent="1" source="HyHaxjE7SYcpdqGhN-RI-21">
          <mxGeometry relative="1" as="geometry">
            <mxPoint x="480" y="440" as="sourcePoint" />
            <mxPoint x="610" y="560" as="targetPoint" />
          </mxGeometry>
        </mxCell>
        <mxCell id="HyHaxjE7SYcpdqGhN-RI-40" value="" style="endArrow=none;html=1;rounded=0;exitX=0.5;exitY=1;exitDx=0;exitDy=0;endFill=0;startArrow=ERoneToMany;startFill=0;" edge="1" parent="1" source="HyHaxjE7SYcpdqGhN-RI-20">
          <mxGeometry relative="1" as="geometry">
            <mxPoint x="480" y="440" as="sourcePoint" />
            <mxPoint x="780" y="560" as="targetPoint" />
          </mxGeometry>
        </mxCell>
        <mxCell id="HyHaxjE7SYcpdqGhN-RI-41" value="" style="endArrow=ERzeroToMany;html=1;rounded=0;exitX=1;exitY=0.5;exitDx=0;exitDy=0;entryX=0;entryY=0.5;entryDx=0;entryDy=0;startArrow=ERmandOne;startFill=0;endFill=0;" edge="1" parent="1" source="HyHaxjE7SYcpdqGhN-RI-19" target="HyHaxjE7SYcpdqGhN-RI-23">
          <mxGeometry relative="1" as="geometry">
            <mxPoint x="480" y="440" as="sourcePoint" />
            <mxPoint x="640" y="440" as="targetPoint" />
          </mxGeometry>
        </mxCell>
        <mxCell id="HyHaxjE7SYcpdqGhN-RI-42" value="" style="endArrow=ERmandOne;html=1;rounded=0;entryX=0;entryY=0.5;entryDx=0;entryDy=0;exitX=1;exitY=0.5;exitDx=0;exitDy=0;startArrow=ERzeroToMany;startFill=0;endFill=0;" edge="1" parent="1" source="HyHaxjE7SYcpdqGhN-RI-23" target="HyHaxjE7SYcpdqGhN-RI-20">
          <mxGeometry relative="1" as="geometry">
            <mxPoint x="480" y="440" as="sourcePoint" />
            <mxPoint x="640" y="440" as="targetPoint" />
          </mxGeometry>
        </mxCell>
        <mxCell id="HyHaxjE7SYcpdqGhN-RI-43" value="" style="endArrow=ERoneToMany;html=1;rounded=0;exitX=0.5;exitY=1;exitDx=0;exitDy=0;endFill=0;startArrow=ERone;startFill=0;" edge="1" parent="1" source="HyHaxjE7SYcpdqGhN-RI-19" target="HyHaxjE7SYcpdqGhN-RI-25">
          <mxGeometry relative="1" as="geometry">
            <mxPoint x="480" y="610" as="sourcePoint" />
            <mxPoint x="640" y="610" as="targetPoint" />
          </mxGeometry>
        </mxCell>
        <mxCell id="HyHaxjE7SYcpdqGhN-RI-44" value="" style="endArrow=ERmandOne;html=1;rounded=0;endFill=0;startArrow=ERoneToMany;startFill=0;" edge="1" parent="1" target="HyHaxjE7SYcpdqGhN-RI-24">
          <mxGeometry relative="1" as="geometry">
            <mxPoint x="380" y="640" as="sourcePoint" />
            <mxPoint x="640" y="610" as="targetPoint" />
          </mxGeometry>
        </mxCell>
        <mxCell id="HyHaxjE7SYcpdqGhN-RI-45" value="DELTAKER" style="rounded=0;whiteSpace=wrap;html=1;fillColor=#d5e8d4;strokeColor=#82b366;" vertex="1" parent="1">
          <mxGeometry x="440" y="240" width="120" height="60" as="geometry" />
        </mxCell>
        <mxCell id="HyHaxjE7SYcpdqGhN-RI-46" value="" style="endArrow=ERoneToMany;html=1;rounded=0;entryX=0.25;entryY=0;entryDx=0;entryDy=0;endFill=0;startArrow=ERoneToMany;startFill=0;" edge="1" parent="1" target="HyHaxjE7SYcpdqGhN-RI-45">
          <mxGeometry relative="1" as="geometry">
            <mxPoint x="470" y="160" as="sourcePoint" />
            <mxPoint x="470" y="270" as="targetPoint" />
          </mxGeometry>
        </mxCell>
      </root>
    </mxGraphModel>
  </diagram>
</mxfile>
